ffmpeg started on 2025-06-27 at 12:06:14
Report written to "D:\Convert\FFMetrics\reports\ssim_report-6.txt"
Log level: 32
Command line:
ffmpeg -hide_banner -nostdin -i "G:\\\xc0\xed\xe8\xec\xe5\\[\xd2\xee\xef]\\\xcf\xee\xe2\xe5\xeb\xe8\xf2\xe5\xeb\xfc\\\xd2\xc2-2\\Special\\[Ohys-Raws] Overlord II - SP13 (BDRip-720p)_HEVC.mkv" -i "G:\\\xc0\xed\xe8\xec\xe5\\[\xd2\xee\xef]\\\xcf\xee\xe2\xe5\xeb\xe8\xf2\xe5\xeb\xfc\\\xd2\xc2-2\\Special\\[Ohys-Raws] Overlord II - SP13 (BDRip-720p).mkv" -lavfi "[0:v]settb=AVTB,setpts=PTS-STARTPTS,format=pix_fmts=yuv420p10,fps=24000/1001,scale=1280:720:flags=bicubic[main];[1:v]settb=AVTB,setpts=PTS-STARTPTS,format=pix_fmts=yuv420p,fps=24000/1001,scale=1280:720:flags=bicubic[ref];[main][ref]ssim=eof_action=endall:stats_file='D\\:/Convert/FFMetrics/logs/ssim_logfile-6.txt'" -f null -
Input #0, matroska,webm, from 'G:\Аниме\[Топ]\Повелитель\ТВ-2\Special\[Ohys-Raws] Overlord II - SP13 (BDRip-720p)_HEVC.mkv':
  Metadata:
    ENCODER         : Lavf61.7.100
  Duration: 00:01:32.10, start: -0.021000, bitrate: 524 kb/s
  Stream #0:0(jpn): Video: hevc (Main 10), yuv420p10le(tv, bt709, progressive), 1280x720 [SAR 1:1 DAR 16:9], 23.98 fps, 23.98 tbr, 1k tbn (default)
      Metadata:
        ENCODER         : Lavc61.19.100 libx265
        BPS             : 326493
        DURATION        : 00:01:32.091708333
        NUMBER_OF_FRAMES: 2208
        NUMBER_OF_BYTES : 3758388
        _STATISTICS_WRITING_APP: mkvpropedit v66.0.0 ('Josie') 64-bit
        _STATISTICS_WRITING_DATE_UTC: 2025-06-27 08:28:19
        _STATISTICS_TAGS: BPS DURATION NUMBER_OF_FRAMES NUMBER_OF_BYTES
  Stream #0:1(jpn): Audio: aac (LC), 48000 Hz, stereo, fltp (default)
      Metadata:
        ENCODER         : Lavc61.19.100 aac
        BPS             : 194173
        DURATION        : 00:01:32.075000000
        NUMBER_OF_FRAMES: 4317
        NUMBER_OF_BYTES : 2234821
        _STATISTICS_WRITING_APP: mkvpropedit v66.0.0 ('Josie') 64-bit
        _STATISTICS_WRITING_DATE_UTC: 2025-06-27 08:28:19
        _STATISTICS_TAGS: BPS DURATION NUMBER_OF_FRAMES NUMBER_OF_BYTES
Input #1, matroska,webm, from 'G:\Аниме\[Топ]\Повелитель\ТВ-2\Special\[Ohys-Raws] Overlord II - SP13 (BDRip-720p).mkv':
  Metadata:
    encoder         : libebml v1.2.3 + libmatroska v1.3.0
    creation_time   : 2018-08-21T12:10:09.000000Z
  Duration: 00:01:32.09, start: 0.000000, bitrate: 1425 kb/s
  Stream #1:0(jpn): Video: h264 (Main), yuv420p(progressive), 1280x720 [SAR 1:1 DAR 16:9], 23.98 fps, 23.98 tbr, 1k tbn (default)
  Stream #1:1(jpn): Audio: aac (LC), 48000 Hz, stereo, fltp (default)
Stream mapping:
  Stream #0:0 (hevc) -> settb:default
  Stream #1:0 (h264) -> settb:default
  ssim:default -> Stream #0:0 (wrapped_avframe)
  Stream #0:1 -> #0:1 (aac (native) -> pcm_s16le (native))
[swscaler @ 0000025ca00c3e80] No accelerated colorspace conversion found from yuv420p to bgr48le.
[swscaler @ 0000025ca013c200] No accelerated colorspace conversion found from yuv420p to bgr48le.
[swscaler @ 0000025ca01ae800] No accelerated colorspace conversion found from yuv420p to bgr48le.
[swscaler @ 0000025c9d660f00] No accelerated colorspace conversion found from yuv420p to bgr48le.
[swscaler @ 0000025ca03ca4c0] No accelerated colorspace conversion found from yuv420p to bgr48le.
[swscaler @ 0000025ca04baac0] No accelerated colorspace conversion found from yuv420p to bgr48le.
[swscaler @ 0000025ca067bac0] No accelerated colorspace conversion found from yuv420p to bgr48le.
[swscaler @ 0000025ca074fdc0] No accelerated colorspace conversion found from yuv420p to bgr48le.
[swscaler @ 0000025ca098ab00] No accelerated colorspace conversion found from yuv420p to bgr48le.
[swscaler @ 0000025ca0a69b40] No accelerated colorspace conversion found from yuv420p to bgr48le.
[swscaler @ 0000025ca0b37040] No accelerated colorspace conversion found from yuv420p to bgr48le.
[swscaler @ 0000025ca0bc0040] No accelerated colorspace conversion found from yuv420p to bgr48le.
[swscaler @ 0000025ca0c1f040] No accelerated colorspace conversion found from yuv420p to bgr48le.
[swscaler @ 0000025ca0c7e040] No accelerated colorspace conversion found from yuv420p to bgr48le.
[swscaler @ 0000025ca0cdd040] No accelerated colorspace conversion found from yuv420p to bgr48le.
[swscaler @ 0000025ca0d75040] No accelerated colorspace conversion found from yuv420p to bgr48le.
Output #0, null, to 'pipe:':
  Metadata:
    encoder         : Lavf61.7.100
  Stream #0:0: Video: wrapped_avframe, yuv420p10le(tv, bt709, progressive), 1280x720 [SAR 1:1 DAR 16:9], q=2-31, 200 kb/s, 23.98 fps, 23.98 tbn
      Metadata:
        encoder         : Lavc61.19.100 wrapped_avframe
  Stream #0:1(jpn): Audio: pcm_s16le, 48000 Hz, stereo, s16, 1536 kb/s (default)
      Metadata:
        _STATISTICS_TAGS: BPS DURATION NUMBER_OF_FRAMES NUMBER_OF_BYTES
        BPS             : 194173
        DURATION        : 00:01:32.075000000
        NUMBER_OF_FRAMES: 4317
        NUMBER_OF_BYTES : 2234821
        _STATISTICS_WRITING_APP: mkvpropedit v66.0.0 ('Josie') 64-bit
        _STATISTICS_WRITING_DATE_UTC: 2025-06-27 08:28:19
        encoder         : Lavc61.19.100 pcm_s16le
frame=   74 fps=0.0 q=-0.0 size=N/A time=00:00:03.08 bitrate=N/A speed=5.94x    frame=  159 fps=155 q=-0.0 size=N/A time=00:00:06.63 bitrate=N/A speed=6.45x    frame=  239 fps=154 q=-0.0 size=N/A time=00:00:09.96 bitrate=N/A speed=6.42x    frame=  326 fps=158 q=-0.0 size=N/A time=00:00:13.59 bitrate=N/A speed= 6.6x    frame=  418 fps=162 q=-0.0 size=N/A time=00:00:17.43 bitrate=N/A speed=6.75x    frame=  497 fps=161 q=-0.0 size=N/A time=00:00:20.72 bitrate=N/A speed=6.71x    frame=  587 fps=162 q=-0.0 size=N/A time=00:00:24.48 bitrate=N/A speed=6.77x    frame=  672 fps=163 q=-0.0 size=N/A time=00:00:28.02 bitrate=N/A speed= 6.8x    frame=  760 fps=164 q=-0.0 size=N/A time=00:00:31.69 bitrate=N/A speed=6.82x    frame=  844 fps=164 q=-0.0 size=N/A time=00:00:35.20 bitrate=N/A speed=6.83x    frame=  931 fps=164 q=-0.0 size=N/A time=00:00:38.83 bitrate=N/A speed=6.84x    frame= 1014 fps=164 q=-0.0 size=N/A time=00:00:42.29 bitrate=N/A speed=6.84x    frame= 1103 fps=165 q=-0.0 size=N/A time=00:00:46.00 bitrate=N/A speed=6.86x    frame= 1187 fps=165 q=-0.0 size=N/A time=00:00:49.50 bitrate=N/A speed=6.86x    frame= 1274 fps=165 q=-0.0 size=N/A time=00:00:53.13 bitrate=N/A speed=6.87x    frame= 1353 fps=164 q=-0.0 size=N/A time=00:00:56.43 bitrate=N/A speed=6.84x    frame= 1443 fps=165 q=-0.0 size=N/A time=00:01:00.18 bitrate=N/A speed=6.87x    frame= 1531 fps=165 q=-0.0 size=N/A time=00:01:03.85 bitrate=N/A speed=6.88x    frame= 1618 fps=165 q=-0.0 size=N/A time=00:01:07.48 bitrate=N/A speed=6.88x    frame= 1701 fps=165 q=-0.0 size=N/A time=00:01:10.94 bitrate=N/A speed=6.88x    frame= 1783 fps=165 q=-0.0 size=N/A time=00:01:14.36 bitrate=N/A speed=6.87x    frame= 1867 fps=165 q=-0.0 size=N/A time=00:01:17.86 bitrate=N/A speed=6.87x    frame= 1960 fps=165 q=-0.0 size=N/A time=00:01:21.74 bitrate=N/A speed=6.89x    frame= 2044 fps=165 q=-0.0 size=N/A time=00:01:25.25 bitrate=N/A speed=6.89x    frame= 2134 fps=166 q=-0.0 size=N/A time=00:01:29.00 bitrate=N/A speed= 6.9x    [Parsed_ssim_10 @ 0000025c9f8faec0] SSIM Y:0.991919 (20.925473) U:0.991023 (20.468459) V:0.990617 (20.276687) All:0.991553 (20.732861)
[out#0/null @ 0000025c93cb27c0] video:949KiB audio:17268KiB subtitle:0KiB other streams:0KiB global headers:0KiB muxing overhead: unknown
frame= 2208 fps=166 q=-0.0 Lsize=N/A time=00:01:32.09 bitrate=N/A speed=6.91x    
